<svg xmlns="http://www.w3.org/2000/svg" viewBox="0 0 32 32" aria-hidden="true" role="presentation" focusable="false"
  style="display: block; fill: black; height: 24px; width: 24px">
  <path d="M24 27c.99 0 1.95.35 2.67 1 .3.29.71.45 1.14.5H28v2h-.23a3.96 3.96 0 0 1-2.44-1A1.98 1.98 0 0 0 24 29c-.5 0-.98.17-1.33.5a3.98 3.98 0 0 1-2.67 1 3.98 3.98 0 0 1-2.67-1A1.98 1.98 0 0 0 16 29c-.5 0-.98.17-1.33.5a3.98 3.98 0 0 1-2.67 1 3.98 3.98 0 0 1-2.67-1A1.98 1.98 0 0 0 8 29c-.5 0-.98.17-1.33.5a3.96 3.96 0 0 1-2.44 1H4v-2h.19a1.95 1.95 0 0 0 1.14-.5A3.98 3.98 0 0 1 8 27c.99 0 1.95.35 2.67 1 .35.33.83.5 1.33.5.5 0 .98-.17 1.33-.5A3.97 3.97 0 0 1 16 27c.99 0 1.95.35 2.67 1 .35.33.83.5 1.33.5.5 0 .98-.17 1.33-.5A3.98 3.98 0 0 1 24 27zm0-5c.99 0 1.95.35 2.67 1 .3.29.71.45 1.14.5H28v2h-.23a3.96 3.96 0 0 1-2.44-1A1.98 1.98 0 0 0 24 24c-.5 0-.98.17-1.33.5a3.98 3.98 0 0 1-2.67 1 3.98 3.98 0 0 1-2.67-1A1.98 1.98 0 0 0 16 24c-.5 0-.98.17-1.33.5a3.98 3.98 0 0 1-2.67 1 3.98 3.98 0 0 1-2.67-1A1.98 1.98 0 0 0 8 24c-.5 0-.98.17-1.33.5a3.96 3.96 0 0 1-2.44 1H4v-2h.19a1.95 1.95 0 0 0 1.14-.5A3.98 3.98 0 0 1 8 22c.99 0 1.95.35 2.67 1 .35.33.83.5 1.33.5.5 0 .98-.17 1.33-.5A3.97 3.97 0 0 1 16 22c.99 0 1.95.35 2.67 1 .35.33.83.5 1.33.5.5 0 .98-.17 1.33-.5A3.98 3.98 0 0 1 24 22zm0-5c.99 0 1.95.35 2.67 1 .3.29.71.45 1.14.5H28v2h-.23a3.96 3.96 0 0 1-2.44-1A1.98 1.98 0 0 0 24 19c-.5 0-.98.17-1.33.5a3.98 3.98 0 0 1-2.67 1 3.98 3.98 0 0 1-2.67-1A1.98 1.98 0 0 0 16 19c-.5 0-.98.17-1.33.5a3.98 3.98 0 0 1-2.67 1 3.98 3.98 0 0 1-2.67-1A1.98 1.98 0 0 0 8 19c-.5 0-.98.17-1.33.5a3.96 3.96 0 0 1-2.44 1H4v-2h.19a1.95 1.95 0 0 0 1.14-.5A3.98 3.98 0 0 1 8 17c.99 0 1.95.35 2.67 1 .35.33.83.5 1.33.5.5 0 .98-.17 1.33-.5A3.97 3.97 0 0 1 16 17c.99 0 1.95.35 2.67 1 .35.33.83.5 1.33.5.5 0 .98-.17 1.33-.5A3.98 3.98 0 0 1 24 17zM16 1a9 9 0 0 1 8.76 11.07c.71.13 1.37.45 1.91.94.3.27.71.44 1.14.48l.19.01v2h-.23a3.96 3.96 0 0 1-2.44-1 1.95 1.95 0 0 0-1.14-.5H23.96a2 2 0 0 0-1.15.38l-.14.11A3.98 3.98 0 0 1 20 15.5a3.98 3.98 0 0 1-2.67-1A1.98 1.98 0 0 0 16 14c-.5 0-.98.17-1.33.5a3.98 3.98 0 0 1-2.67 1 3.98 3.98 0 0 1-2.67-1 1.95 1.95 0 0 0-1.14-.5H7.96a2 2 0 0 0-1.15.38l-.14.11a3.96 3.96 0 0 1-2.44 1L4 15.5v-2h.19a1.95 1.95 0 0 0 1.14-.5 3.92 3.92 0 0 1 1.9-.93A9 9 0 0 1 16 1zm0 2a7 7 0 0 0-6.64 9.23c.49.17.93.43 1.31.78.35.32.83.49 1.33.49.5 0 .98-.17 1.33-.5A3.97 3.97 0 0 1 16 12c.99 0 1.95.35 2.67 1 .35.33.83.5 1.33.5a2 2 0 0 0 1.2-.38l.13-.11c.38-.35.82-.6 1.3-.78A7 7 0 0 0 16 3z"/>
</svg>