<svg xmlns="http://www.w3.org/2000/svg" viewBox="0 0 32 32" aria-hidden="true" role="presentation" focusable="false"
  style="display: block; fill: black; height: 24px; width: 24px;">
  <path d="M23 3a2 2 0 0 1 2 1.85v1.67l5-2v11.96l-5-2V16a2 2 0 0 1-1.85 2H16.9a5 5 0 0 1-3.98 3.92A5 5 0 0 1 8.22 26H4v4H2V20h2v4h4a3 3 0 0 0 2.87-2.13A5 5 0 0 1 7.1 18H4a2 2 0 0 1-2-1.85V5a2 2 0 0 1 1.85-2H4zM12 14a3 3 0 1 0 0 6 3 3 0 0 0 0-6zm11-9H4v11h3.1a5 5 0 0 1 9.8 0H23zm5 2.48-3 1.2v3.64l3 1.2zM7 7a1 1 0 1 1 0 2 1 1 0 0 1 0-2z"/>
</svg>