<svg xmlns="http://www.w3.org/2000/svg" viewBox="0 0 32 32" aria-hidden="true" role="presentation" focusable="false"
  style="display: block; fill: black; height: 24px; width: 24px;">
  <path d="M28 2a2 2 0 0 1 2 2v24a2 2 0 0 1-2 2H4a2 2 0 0 1-2-2V4a2 2 0 0 1 2-2zm0 2H4v15.5h.19c.37-.04.72-.17 1-.38l.14-.11A3.98 3.98 0 0 1 8 18c.99 0 1.95.35 2.67 1 .35.33.83.5 1.33.5.5 0 .98-.17 1.33-.5A3.97 3.97 0 0 1 16 18c.99 0 1.95.35 2.67 1 .35.33.83.5 1.33.5.5 0 .98-.17 1.33-.5A3.98 3.98 0 0 1 24 18c.99 0 1.94.35 2.67 1 .35.33.83.5 1.33.5v2h-.23a3.96 3.96 0 0 1-2.44-1A1.98 1.98 0 0 0 24 20c-.5 0-.98.17-1.33.5a3.98 3.98 0 0 1-2.67 1 3.98 3.98 0 0 1-2.67-1A1.98 1.98 0 0 0 16 20c-.5 0-.98.17-1.33.5a3.98 3.98 0 0 1-2.67 1 3.98 3.98 0 0 1-2.67-1A1.98 1.98 0 0 0 8 20c-.5 0-.98.17-1.33.5a3.98 3.98 0 0 1-2.67 1v3h.19c.37-.04.72-.17 1-.38l.14-.11A3.98 3.98 0 0 1 8 23c.99 0 1.95.35 2.67 1 .35.33.83.5 1.33.5.5 0 .98-.17 1.33-.5A3.97 3.97 0 0 1 16 23c.99 0 1.95.35 2.67 1 .35.33.83.5 1.33.5.5 0 .98-.17 1.33-.5A3.98 3.98 0 0 1 24 23c.99 0 1.94.35 2.67 1 .35.33.83.5 1.33.5v2h-.23a3.96 3.96 0 0 1-2.44-1A1.98 1.98 0 0 0 24 25c-.5 0-.98.17-1.33.5a3.98 3.98 0 0 1-2.67 1 3.98 3.98 0 0 1-2.67-1A1.98 1.98 0 0 0 16 25c-.5 0-.98.17-1.33.5a3.98 3.98 0 0 1-2.67 1 3.98 3.98 0 0 1-2.67-1A1.98 1.98 0 0 0 8 25c-.5 0-.98.17-1.33.5a3.98 3.98 0 0 1-2.67 1V28h24zm-6 3a3 3 0 1 1 0 6 3 3 0 0 1 0-6zm0 2a1 1 0 1 0 0 2 1 1 0 0 0 0-2z"/>
</svg>