<svg xmlns="http://www.w3.org/2000/svg" viewBox="0 0 32 32"
     style="display:block;fill:#222222;height:18px;width:18px;stroke:none;stroke-width:4;overflow:visible">
    <path d="M30 0a2 2 0 0 1 2 2v28a2 2 0 0 1-2 2H2a2 2 0 0 1-2-2V2a2 2 0 0 1 2-2z">
    </path>
    <path fill="#fff" d="M15.71 4h1.25c2.4 0 2.85.02 3.99.07 1.28.06 2.15.26 2.91.56.79.3 1.46.72 2.13 1.38.6.6 1.08 1.33 1.38 2.13l.02.06c.28.74.48 1.58.54 2.8l.01.4c.05 1.02.06 1.63.06 4.4v.92c0 2.6-.02 3.05-.07 4.23a8.78 8.78 0 0 1-.56 2.91c-.3.8-.77 1.53-1.38 2.13a5.88 5.88 0 0 1-2.13 1.38l-.06.02c-.74.28-1.59.48-2.8.53l-.4.02c-1.02.05-1.63.06-4.4.06h-.92a73.1 73.1 0 0 1-4.23-.07 8.78 8.78 0 0 1-2.91-.56c-.8-.3-1.53-.77-2.13-1.38a5.88 5.88 0 0 1-1.38-2.13l-.02-.06a8.84 8.84 0 0 1-.54-2.8l-.01-.37A84.75 84.75 0 0 1 4 16.29v-1c0-2.62.02-3.06.07-4.24.06-1.26.26-2.13.55-2.88l.01-.03c.3-.8.77-1.53 1.38-2.13a5.88 5.88 0 0 1 2.13-1.38l.06-.02a8.84 8.84 0 0 1 2.8-.54l.37-.01C12.39 4 12.99 4 15.71 4zm.91 2.16h-1.24c-2.3 0-2.91.01-3.81.05l-.42.02c-1.17.05-1.8.25-2.23.41-.56.22-.96.48-1.38.9-.4.41-.67.8-.88 1.35l-.03.06a6.7 6.7 0 0 0-.4 2.2l-.02.45c-.04.9-.05 1.53-.05 3.94v1.08c0 2.64.02 3.05.07 4.23v.07c.06 1.13.25 1.74.42 2.16.21.56.47.96.9 1.38.4.4.8.67 1.34.88l.06.03a6.7 6.7 0 0 0 2.2.4l.45.02c.9.04 1.53.05 3.94.05h1.08c2.64 0 3.05-.02 4.23-.07h.07a6.51 6.51 0 0 0 2.16-.42c.52-.19.99-.5 1.38-.9.4-.4.67-.8.88-1.34l.03-.06a6.7 6.7 0 0 0 .4-2.2l.02-.45c.04-.9.05-1.53.05-3.94v-1.09c0-2.63-.02-3.04-.07-4.22v-.07a6.51 6.51 0 0 0-.42-2.16c-.19-.52-.5-.99-.9-1.38a3.7 3.7 0 0 0-1.34-.88l-.06-.03a6.63 6.63 0 0 0-2.16-.4l-.46-.02c-.9-.04-1.5-.05-3.8-.05zM16 9.84a6.16 6.16 0 1 1 0 12.32 6.16 6.16 0 0 1 0-12.32zM16 12a4 4 0 1 0 0 8 4 4 0 0 0 0-8zm6.4-3.85a1.44 1.44 0 1 1 0 2.88 1.44 1.44 0 0 1 0-2.88z">
    </path>
</svg>