<svg xmlns="http://www.w3.org/2000/svg" viewBox="0 0 32 32" aria-hidden="true" role="presentation" focusable="false"
  style="display: block; fill: black; height: 24px; width: 24px; overflow: visible;">
  <path d="m3.49 7.73 1.44 1.44A12.94 12.94 0 0 0 3 16a13 13 0 0 0 19.82 11.07l1.45 1.44A14.93 14.93 0 0 1 16 31 15 15 0 0 1 3.49 7.73zm.22-5.44 26 26-1.42 1.42-26-26 1.42-1.42zM16 1a15 15 0 0 1 12.52 23.27l-1.45-1.45A12.94 12.94 0 0 0 29 16 13 13 0 0 0 16 3a12.94 12.94 0 0 0-6.83 1.93L7.74 3.5A14.93 14.93 0 0 1 16 1zm-4.9 16a5 5 0 0 0 3.9 3.9v2.03A7 7 0 0 1 9.07 17h2.03zm5.9 4.24 1.35 1.36a6.95 6.95 0 0 1-1.35.33v-1.69zM21.24 17h1.69c-.07.47-.18.92-.34 1.35L21.24 17zM17 9.07A7 7 0 0 1 22.93 15H20.9a5 5 0 0 0-3.9-3.9V9.07zm-7.6 4.58L10.76 15H9.07c.07-.47.18-.92.33-1.35zM15 9.07v1.69L13.65 9.4A6.95 6.95 0 0 1 15 9.07zM23 8a1 1 0 1 1 0 2 1 1 0 0 1 0-2z"/>
</svg>