<svg xmlns="http://www.w3.org/2000/svg" viewBox="0 0 32 32"
     style="display:block;fill:#222222;height:18px;width:18px;stroke:none;stroke-width:4;overflow:visible">
    <path d="M30 0a2 2 0 0 1 2 2v28a2 2 0 0 1-2 2H2a2 2 0 0 1-2-2V2a2 2 0 0 1 2-2z">
    </path>
    <path fill="#fff" d="M18.66 7.99a4.5 4.5 0 0 0-2.28 4.88A12.31 12.31 0 0 1 7.3 8.25a4.25 4.25 0 0 0 1.38 5.88c-.69 0-1.38-.13-2-.44a4.54 4.54 0 0 0 3.5 4.31 4.3 4.3 0 0 1-2 .06 4.64 4.64 0 0 0 4.19 3.13A8.33 8.33 0 0 1 5.8 23a12.44 12.44 0 0 0 19.32-11.19A7.72 7.72 0 0 0 27.3 9.5a8.3 8.3 0 0 1-2.5.75 4.7 4.7 0 0 0 2-2.5c-.87.5-1.81.87-2.81 1.06a4.5 4.5 0 0 0-5.34-.83z">
    </path>
</svg>